<svg id="Calque_1" data-name="Calque 1" xmlns="http://www.w3.org/2000/svg" viewBox="0 0 52.6 61.18">
  <title>ricky</title>
  <path d="M51.26,48.78V21.6A3.56,3.56,0,0,0,47.7,18H47.59V9.72h6A2.45,2.45,0,0,0,56,7.27V4.69a2.45,2.45,0,0,0-2.45-2.45H41.79a2.45,2.45,0,0,0-2.45,2.45V7.27a2.45,2.45,0,0,0,2.45,2.45h2V18H17.58A3.56,3.56,0,0,0,14,21.6V48.77H13A7.33,7.33,0,0,0,5.7,56.1h0A7.33,7.33,0,0,0,13,63.43H51A7.33,7.33,0,0,0,58.3,56.1h0A7.32,7.32,0,0,0,51.26,48.78Z" transform="translate(-5.7 -2.24)" fill="#241f20"/>
</svg>
